<svg width="1920" height="1500" viewBox="0 0 1920 1500" fill="none" xmlns="http://www.w3.org/2000/svg">
<g opacity="0.5">
<path d="M1473.97 0V97.0196L1347.67 169.951L1221.37 97.0196V0H1216.89V99.5926L1347.67 175.097L1478.41 99.5926V0H1473.97Z" fill="#C6ECFC"/>
<path d="M1731 0V97.0196L1604.71 169.951L1478.41 97.0196V0H1473.97V99.5926L1604.71 175.097L1735.48 99.5926V0H1731Z" fill="#C6ECFC"/>
<path d="M1735.48 97.0196V0H1731V99.5926L1861.78 175.097L1922.87 139.829V134.683L1861.78 169.951L1735.48 97.0196Z" fill="#C6ECFC"/>
<path d="M1476.19 397.705L1345.41 322.201V171.237L1476.19 95.7331L1606.97 171.237V322.245L1476.19 397.705ZM1349.89 319.672L1476.19 392.603L1602.49 319.672V173.81L1476.19 100.879L1349.89 173.81V319.672Z" fill="#C6ECFC"/>
<path d="M1733.27 397.705L1602.49 322.201V171.237L1733.27 95.7331L1864.05 171.237V322.245L1733.27 397.705ZM1606.97 319.672L1733.27 392.603L1859.56 319.672V173.81L1733.27 100.879L1606.97 173.81V319.672Z" fill="#C6ECFC"/>
<path d="M1922.87 353.609L1864 319.672V173.81L1922.87 139.829V134.683L1859.56 171.237V322.245L1922.87 358.755V353.609Z" fill="#C6ECFC"/>
<path d="M1604.71 620.358L1473.93 544.854V393.846L1604.71 318.341L1735.48 393.846V544.854L1604.71 620.358ZM1478.41 542.281L1604.71 615.212L1731 542.281V396.419L1604.71 323.487L1478.41 396.419V542.281Z" fill="#C6ECFC"/>
<path d="M1922.87 579.944L1861.78 615.212L1735.48 542.281V396.418L1861.78 323.532L1922.87 358.755V353.609L1861.78 318.386L1731 393.845V544.854L1861.78 620.358L1922.87 585.09V579.944Z" fill="#C6ECFC"/>
<path d="M0 579.19V584.38L60.1105 619.071V764.889L0 799.58V804.77L64.5467 767.462V616.498L0 579.19Z" fill="#C6ECFC"/>
<path d="M190.845 842.966L60.1104 767.462V616.454L190.889 540.95L321.669 616.454V767.462L190.845 842.966ZM64.5466 764.889L190.845 837.82L317.144 764.889V619.027L190.845 546.096L64.5466 619.027V764.889Z" fill="#C6ECFC"/>
<path d="M447.923 842.966L317.144 767.462V616.454L447.923 540.95L578.702 616.454V767.462L447.923 842.966ZM321.624 764.889L447.923 837.82L574.221 764.889V619.027L447.923 546.096L321.624 619.071V764.889Z" fill="#C6ECFC"/>
<path d="M1922.87 798.87L1864 764.889V619.071L1922.87 585.09V579.944L1859.56 616.498V767.462L1922.87 804.016V798.87Z" fill="#C6ECFC"/>
<path d="M62.3286 763.602L0 799.58V804.77L62.3286 768.748L188.627 841.679V987.542L62.3286 1060.43L0 1024.45V1029.6L62.3286 1065.62L193.108 990.115V839.106L62.3286 763.602Z" fill="#C6ECFC"/>
<path d="M319.406 1065.62L188.627 990.115V839.106L319.406 763.602L450.185 839.106V990.115L319.406 1065.62ZM193.108 987.542L319.406 1060.43L445.705 987.497V841.635L319.406 768.748L193.108 841.679V987.542Z" fill="#C6ECFC"/>
<path d="M576.439 1065.62L445.66 990.115V839.106L576.439 763.602L707.219 839.106V990.115L576.439 1065.62ZM450.141 987.542L576.439 1060.47L702.738 987.542V841.679L576.439 768.748L450.141 841.679V987.542Z" fill="#C6ECFC"/>
<path d="M0 1024.45V1029.6L60.1105 1064.33V1210.15L0 1244.84V1249.99L64.5467 1212.72V1061.71L0 1024.45Z" fill="#C6ECFC"/>
<path d="M190.845 1288.23L60.066 1212.72V1061.71L190.845 986.211L321.624 1061.71V1212.72L190.845 1288.23ZM64.5466 1210.15L190.845 1283.08L317.144 1210.15V1064.29L190.845 991.357L64.5466 1064.29V1210.15Z" fill="#C6ECFC"/>
<path d="M447.923 1288.23L317.144 1212.72V1061.71L447.923 986.211L578.702 1061.71V1212.72L447.923 1288.23ZM321.624 1210.15L447.923 1283.08L574.221 1210.15V1064.29L447.923 991.357L321.624 1064.33V1210.15Z" fill="#C6ECFC"/>
<path d="M1733.27 1288.23L1602.49 1212.72V1061.71L1733.27 986.211L1864.05 1061.71V1212.72L1733.27 1288.23ZM1606.97 1210.15L1733.27 1283.08L1859.56 1210.15V1064.29L1733.27 991.357L1606.97 1064.29V1210.15Z" fill="#C6ECFC"/>
<path d="M0 1474.86L44.495 1500.54H53.4118L0 1469.71V1474.86Z" fill="#C6ECFC"/>
<path d="M62.3286 1208.86L0 1244.84V1249.99L62.3286 1214.01L188.627 1286.94V1432.76L71.2453 1500.54H80.1621L193.108 1435.38V1284.37L62.3286 1208.86Z" fill="#C6ECFC"/>
<path d="M310.49 1500.54L193.108 1432.76V1286.94L319.406 1214.01L445.705 1286.94V1432.76L328.323 1500.54H337.24L450.141 1435.38V1284.37L319.406 1208.86L188.627 1284.37V1435.38L301.528 1500.54H310.49Z" fill="#C6ECFC"/>
<path d="M567.522 1500.54L450.141 1432.76V1286.94L576.439 1214.01L702.738 1286.94V1432.76L585.4 1500.54H594.317L707.218 1435.38V1284.37L576.439 1208.86L445.705 1284.37V1435.38L558.606 1500.54H567.522Z" fill="#C6ECFC"/>
<path d="M1595.79 1500.54L1478.41 1432.76V1286.94L1604.71 1214.01L1731 1286.94V1432.76L1613.67 1500.54H1622.58L1735.48 1435.38V1284.37L1604.71 1208.86L1473.97 1284.37V1435.38L1586.87 1500.54H1595.79Z" fill="#C6ECFC"/>
<path d="M1861.78 1214.01L1922.87 1249.28V1244.13L1861.78 1208.86L1731 1284.37V1435.38L1843.95 1500.54H1852.87L1735.48 1432.76V1286.94L1861.78 1214.01Z" fill="#C6ECFC"/>
<path d="M1922.87 1470.42L1870.7 1500.54H1879.62L1922.87 1475.61V1470.42Z" fill="#C6ECFC"/>
<path d="M0 1469.71V1474.86L44.495 1500.54H53.4118L0 1469.71Z" fill="#C6ECFC"/>
<path d="M80.1621 1500.54L190.845 1436.66L301.528 1500.54H310.489L190.845 1431.47L71.2454 1500.54H80.1621Z" fill="#C6ECFC"/>
<path d="M337.24 1500.54L447.923 1436.66L558.606 1500.54H567.523L447.923 1431.47L328.323 1500.54H337.24Z" fill="#C6ECFC"/>
<path d="M594.317 1500.54L705 1436.66L815.684 1500.54H824.6L705 1431.47L585.401 1500.54H594.317Z" fill="#C6ECFC"/>
<path d="M851.395 1500.54L962.078 1436.66L1072.72 1500.54H1081.68L962.078 1431.47L842.434 1500.54H851.395Z" fill="#C6ECFC"/>
<path d="M1108.43 1500.54L1219.11 1436.66L1329.79 1500.54H1338.71L1219.11 1431.47L1099.51 1500.54H1108.43Z" fill="#C6ECFC"/>
<path d="M1365.51 1500.54L1476.19 1436.66L1586.87 1500.54H1595.79L1476.19 1431.47L1356.59 1500.54H1365.51Z" fill="#C6ECFC"/>
<path d="M1622.58 1500.54L1733.27 1436.66L1843.95 1500.54H1852.87L1733.27 1431.47L1613.67 1500.54H1622.58Z" fill="#C6ECFC"/>
<path d="M1922.87 1470.42L1870.7 1500.54H1879.62L1922.87 1475.61V1470.42Z" fill="#C6ECFC"/>
</g>
<path d="M1109.72 412.269L1109.5 412.136L1010.66 355.086V240.677L1010.88 240.544L1109.72 183.494L1109.94 183.627L1208.78 240.677V355.042L1208.56 355.175L1109.72 412.269ZM1011.51 354.554L1109.68 411.248L1207.85 354.554V241.209L1109.68 184.514L1011.51 241.209V354.554Z" fill="url(#paint0_linear)"/>
<path d="M1306.96 412.269L1306.73 412.136L1207.9 355.086V240.677L1208.12 240.544L1306.96 183.494L1307.18 183.627L1406.02 240.677V355.042L1405.79 355.175L1306.96 412.269ZM1208.74 354.554L1306.96 411.248L1405.13 354.554V241.209L1306.96 184.514L1208.78 241.209V354.554H1208.74Z" fill="url(#paint1_linear)"/>
<path d="M1504.19 412.269L1503.97 412.136L1405.13 355.086V240.677L1405.35 240.544L1504.19 183.494L1504.41 183.627L1603.25 240.677V355.042L1603.03 355.175L1504.19 412.269ZM1406.02 354.554L1504.23 411.248L1602.41 354.554V241.209L1504.23 184.514L1406.02 241.209V354.554Z" fill="url(#paint2_linear)"/>
<path d="M1701.47 412.269L1701.24 412.136L1602.41 355.086V240.677L1602.63 240.544L1701.47 183.494L1701.69 183.627L1800.53 240.677V355.042L1800.3 355.175L1701.47 412.269ZM1603.25 354.554L1701.42 411.248L1799.6 354.554V241.209L1701.42 184.514L1603.25 241.209V354.554Z" fill="url(#paint3_linear)"/>
<path d="M1922.92 397.274L1898.7 411.248L1800.48 354.554V241.209L1898.7 184.514L1922.92 198.488V197.468L1898.92 183.627L1898.7 183.494L1799.86 240.588L1799.64 240.677V355.086L1898.48 412.136L1898.7 412.269L1922.92 398.295V397.274Z" fill="url(#paint4_linear)"/>
<path d="M1208.34 583.062L1208.12 582.929L1109.28 525.88V411.515L1109.5 411.381L1208.34 354.332L1208.56 354.465L1307.4 411.515V525.88L1307.18 526.013L1208.34 583.062ZM1110.12 525.392L1208.29 582.086L1306.47 525.392V412.003L1208.29 355.308L1110.12 412.003V525.392Z" fill="url(#paint5_linear)"/>
<path d="M1405.57 583.062L1405.35 582.929L1306.51 525.88V411.515L1306.73 411.381L1405.57 354.332L1405.79 354.465L1504.63 411.515V525.88L1504.41 526.013L1405.57 583.062ZM1307.4 525.392L1405.57 582.086L1503.75 525.392V412.003L1405.57 355.308L1307.4 412.003V525.392Z" fill="url(#paint6_linear)"/>
<path d="M1602.81 583.062L1602.58 582.929L1503.75 525.88V411.515L1503.97 411.381L1602.81 354.332L1603.03 354.465L1701.87 411.515V525.88L1701.64 526.013L1602.81 583.062ZM1504.63 525.392L1602.81 582.086L1700.98 525.392V412.003L1602.81 355.308L1504.63 412.003V525.392Z" fill="url(#paint7_linear)"/>
<path d="M1800.08 583.062L1799.86 582.929L1701.02 525.88V411.515L1701.24 411.381L1800.08 354.332L1800.3 354.465L1899.14 411.515V525.88L1898.92 526.013L1800.08 583.062ZM1701.87 525.392L1800.04 582.086L1898.21 525.392V412.003L1800.04 355.308L1701.87 412.003V525.392Z" fill="url(#paint8_linear)"/>
<path d="M1922.92 539.144L1899.1 525.392V412.003L1922.92 398.295V397.274L1898.48 411.381L1898.26 411.515V525.88L1922.92 540.12V539.144Z" fill="url(#paint9_linear)"/>
<path d="M1504.19 753.9L1503.97 753.767L1405.13 696.718V582.353L1405.35 582.219L1504.19 525.17L1504.41 525.303L1603.25 582.353V696.718L1603.03 696.851L1504.19 753.9ZM1406.02 696.23L1504.23 752.924L1602.41 696.23V582.841L1504.23 526.146L1406.02 582.841V696.23Z" fill="url(#paint10_linear)"/>
<path d="M1701.47 753.9L1701.24 753.767L1602.41 696.718V582.353L1602.63 582.219L1701.47 525.17L1701.69 525.303L1800.53 582.353V696.718L1800.3 696.851L1701.47 753.9ZM1603.25 696.23L1701.42 752.924L1799.6 696.23V582.841L1701.42 526.146L1603.25 582.841V696.23Z" fill="url(#paint11_linear)"/>
<path d="M1922.92 738.906L1898.7 752.924L1800.48 696.23V582.841L1898.7 526.146L1922.92 540.12V539.144L1898.92 525.259L1898.7 525.126L1799.86 582.219L1799.64 582.353V696.718L1898.48 753.767L1898.7 753.9L1922.92 739.926V738.906Z" fill="url(#paint12_linear)"/>
<path d="M1602.81 924.738L1602.58 924.605L1503.75 867.556V753.19L1503.97 753.057L1602.81 696.008L1603.03 696.141L1701.87 753.19V867.556L1701.64 867.689L1602.81 924.738ZM1504.63 867.023L1602.81 923.718L1700.98 867.023V753.634L1602.81 696.939L1504.63 753.634V867.023Z" fill="url(#paint13_linear)"/>
<path d="M1800.08 924.738L1799.86 924.605L1701.02 867.556V753.19L1701.24 753.057L1800.08 696.008L1800.3 696.141L1899.14 753.19V867.556L1898.92 867.689L1800.08 924.738ZM1701.87 867.023L1800.04 923.718L1898.21 867.023V753.634L1800.08 696.939L1701.91 753.634V867.023H1701.87Z" fill="url(#paint14_linear)"/>
<path d="M1922.92 880.775L1899.1 867.023V753.634L1922.92 739.926V738.906L1898.48 753.013L1898.26 753.146V867.511L1922.92 881.751V880.775Z" fill="url(#paint15_linear)"/>
<path d="M320.745 1095.53L320.523 1095.4L221.685 1038.35V923.984L221.906 923.851L320.745 866.801L320.967 866.934L419.805 923.984V1038.35L419.583 1038.48L320.745 1095.53ZM222.528 1037.86L320.701 1094.56L418.874 1037.86V924.472L320.701 867.777L222.528 924.472V1037.86Z" fill="url(#paint16_linear)"/>
<path d="M1701.47 1095.53L1701.24 1095.4L1602.41 1038.35V923.984L1602.63 923.851L1701.47 866.801L1701.69 866.934L1800.53 923.984V1038.35L1800.3 1038.48L1701.47 1095.53ZM1603.25 1037.86L1701.42 1094.56L1799.6 1037.86V924.472L1701.42 867.777L1603.25 924.472V1037.86Z" fill="url(#paint17_linear)"/>
<path d="M1922.92 1080.58L1898.7 1094.56L1800.48 1037.86V924.472L1898.7 867.777L1922.92 881.751V880.775L1898.92 866.89L1898.7 866.801L1799.86 923.851L1799.64 923.984V1038.35L1898.48 1095.4L1898.7 1095.53L1922.92 1081.56V1080.58Z" fill="url(#paint18_linear)"/>
<path d="M222.084 1266.37L221.862 1266.24L123.024 1209.19V1094.82L123.246 1094.69L222.084 1037.64L222.306 1037.77L321.144 1094.82V1209.19L320.922 1209.32L222.084 1266.37ZM123.911 1208.65L222.084 1265.35L320.257 1208.65V1095.31L222.084 1038.62L123.911 1095.31V1208.65Z" fill="url(#paint19_linear)"/>
<path d="M419.361 1266.37L419.14 1266.24L320.301 1209.19V1094.82L320.523 1094.69L419.361 1037.64L419.583 1037.77L518.422 1094.82V1209.19L518.2 1209.32L419.361 1266.37ZM321.144 1208.65L419.317 1265.35L517.49 1208.65V1095.31L419.317 1038.62L321.144 1095.31V1208.65Z" fill="url(#paint20_linear)"/>
<path d="M616.595 1266.37L616.373 1266.24L517.535 1209.19V1094.82L517.756 1094.69L616.595 1037.64L616.817 1037.77L715.655 1094.82V1209.19L715.433 1209.32L616.595 1266.37ZM518.378 1208.65L616.551 1265.35L714.724 1208.65V1095.31L616.551 1038.62L518.378 1095.31V1208.65Z" fill="url(#paint21_linear)"/>
<path d="M813.828 1266.37L813.607 1266.24L714.768 1209.19V1094.82L714.99 1094.69L813.828 1037.64L814.05 1037.77L912.889 1094.82V1209.19L912.667 1209.32L813.828 1266.37ZM715.655 1208.65L813.828 1265.35L912.001 1208.65V1095.31L813.828 1038.62L715.655 1095.31V1208.65Z" fill="url(#paint22_linear)"/>
<path d="M1922.92 1222.41L1899.1 1208.65V1095.31L1922.92 1081.56V1080.58L1898.48 1094.69L1898.26 1094.78V1209.19L1922.92 1223.38V1222.41Z" fill="url(#paint23_linear)"/>
<path d="M320.745 1437.16L320.523 1437.03L221.685 1379.98V1265.62L221.906 1265.48L320.745 1208.43L320.967 1208.57L419.805 1265.62V1379.98L419.583 1380.11L320.745 1437.16ZM222.528 1379.49L320.701 1436.19L418.874 1379.49V1266.1L320.701 1209.41L222.528 1266.1V1379.49Z" fill="url(#paint24_linear)"/>
<path d="M517.978 1437.16L517.757 1437.03L418.918 1379.98V1265.62L419.14 1265.48L517.978 1208.43L518.2 1208.57L617.039 1265.62V1379.98L616.817 1380.11L517.978 1437.16ZM419.761 1379.49L517.978 1436.19L616.151 1379.49V1266.1L517.978 1209.41L419.761 1266.1V1379.49Z" fill="url(#paint25_linear)"/>
<path d="M715.212 1437.16L714.99 1437.03L616.151 1379.98V1265.62L616.373 1265.48L715.212 1208.43L715.434 1208.57L814.272 1265.62V1379.98L814.05 1380.11L715.212 1437.16ZM617.039 1379.49L715.212 1436.19L813.385 1379.49V1266.1L715.212 1209.41L617.039 1266.1V1379.49Z" fill="url(#paint26_linear)"/>
<path d="M123.911 1501V1436.94L222.084 1380.25L320.301 1436.94V1501H321.144V1436.45L222.306 1379.36L222.084 1379.23L123.246 1436.32L123.068 1436.45V1501H123.911Z" fill="url(#paint27_linear)"/>
<path d="M321.144 1501V1436.94L419.361 1380.25L517.535 1436.94V1501H518.377V1436.45L419.583 1379.36L419.361 1379.23L320.523 1436.32L320.301 1436.45V1501H321.144Z" fill="url(#paint28_linear)"/>
<path d="M518.378 1501V1436.94L616.595 1380.25L714.768 1436.94V1501H715.655V1436.45L616.817 1379.36L616.595 1379.23L517.756 1436.32L517.535 1436.45V1501H518.378Z" fill="url(#paint29_linear)"/>
<path d="M715.655 1501V1436.94L813.828 1380.25L912.046 1436.94V1501H912.889V1436.45L814.05 1379.36L813.828 1379.23L714.99 1436.32L714.768 1436.45V1501H715.655Z" fill="url(#paint30_linear)"/>
<path d="M1504.63 1501V1436.94L1602.81 1380.25L1701.02 1436.94V1501H1701.87V1436.45L1603.03 1379.36L1602.81 1379.23L1503.97 1436.32L1503.79 1436.45V1501H1504.63Z" fill="url(#paint31_linear)"/>
<path d="M1701.87 1501V1436.94L1800.08 1380.25L1898.26 1436.94V1501H1899.1V1436.45L1800.26 1379.36L1800.08 1379.23L1701.24 1436.32L1701.02 1436.45V1501H1701.87Z" fill="url(#paint32_linear)"/>
<path d="M912.445 185.18C913.111 185.18 913.643 184.647 913.643 183.982C913.643 183.317 913.111 182.784 912.445 182.784C911.78 182.784 911.247 183.317 911.247 183.982C911.247 184.647 911.78 185.18 912.445 185.18Z" fill="#EBF9FF"/>
<path d="M1011.11 227.324C1003.61 227.324 997.487 233.401 997.487 240.943C997.487 248.44 1003.56 254.562 1011.11 254.562C1018.6 254.562 1024.73 248.484 1024.73 240.943C1024.68 233.446 1018.6 227.324 1011.11 227.324Z" fill="#EBF9FF"/>
<path d="M1011.11 363.337C1015.81 363.337 1019.62 359.522 1019.62 354.82C1019.62 350.117 1015.81 346.302 1011.11 346.302C1006.4 346.302 1002.59 350.117 1002.59 354.82C1002.59 359.522 1006.4 363.337 1011.11 363.337Z" fill="#EBF9FF"/>
<path d="M1109.72 419.411C1113.94 419.411 1117.4 415.995 1117.4 411.736C1117.4 407.522 1113.98 404.062 1109.72 404.062C1105.51 404.062 1102.05 407.478 1102.05 411.736C1102.05 415.995 1105.46 419.411 1109.72 419.411Z" fill="#EBF9FF"/>
<path d="M1109.72 187.93C1111.9 187.93 1113.67 186.163 1113.67 183.982C1113.67 181.801 1111.9 180.034 1109.72 180.034C1107.54 180.034 1105.77 181.801 1105.77 183.982C1105.77 186.163 1107.54 187.93 1109.72 187.93Z" fill="#EBF9FF"/>
<path d="M1208.34 248.75C1212.64 248.75 1216.15 245.246 1216.15 240.943C1216.15 236.64 1212.64 233.135 1208.34 233.135C1204.04 233.135 1200.53 236.64 1200.53 240.943C1200.53 245.246 1204.04 248.75 1208.34 248.75Z" fill="#EBF9FF"/>
<path d="M1208.34 341.112C1200.75 341.112 1194.63 347.234 1194.63 354.82C1194.63 362.406 1200.75 368.528 1208.34 368.528C1215.93 368.528 1222.05 362.406 1222.05 354.82C1222.05 347.234 1215.88 341.112 1208.34 341.112Z" fill="#EBF9FF"/>
<path d="M1306.96 189.793C1310.15 189.793 1312.72 187.22 1312.72 184.026C1312.72 180.832 1310.15 178.259 1306.96 178.259C1303.76 178.259 1301.19 180.832 1301.19 184.026C1301.19 187.176 1303.76 189.793 1306.96 189.793Z" fill="#EBF9FF"/>
<path d="M1405.57 251.59C1411.43 251.59 1416.22 246.843 1416.22 240.943C1416.22 235.087 1411.47 230.296 1405.57 230.296C1399.72 230.296 1394.93 235.043 1394.93 240.943C1394.93 246.799 1399.72 251.59 1405.57 251.59Z" fill="#EBF9FF"/>
<path d="M1405.57 367.507C1412.58 367.507 1418.26 361.827 1418.26 354.82C1418.26 347.813 1412.58 342.132 1405.57 342.132C1398.57 342.132 1392.89 347.813 1392.89 354.82C1392.89 361.827 1398.57 367.507 1405.57 367.507Z" fill="#EBF9FF"/>
<path d="M1504.19 190.636C1507.87 190.636 1510.84 187.664 1510.84 183.982C1510.84 180.3 1507.87 177.328 1504.19 177.328C1500.51 177.328 1497.54 180.3 1497.54 183.982C1497.58 187.664 1500.55 190.636 1504.19 190.636Z" fill="#EBF9FF"/>
<path d="M1602.81 248.573C1607.02 248.573 1610.44 245.157 1610.44 240.943C1610.44 236.728 1607.02 233.312 1602.81 233.312C1598.59 233.312 1595.18 236.728 1595.18 240.943C1595.18 245.157 1598.59 248.573 1602.81 248.573Z" fill="#EBF9FF"/>
<path d="M1602.81 360.276C1605.82 360.276 1608.26 357.833 1608.26 354.82C1608.26 351.806 1605.82 349.363 1602.81 349.363C1599.79 349.363 1597.35 351.806 1597.35 354.82C1597.35 357.833 1599.79 360.276 1602.81 360.276Z" fill="#EBF9FF"/>
<path d="M1701.47 189.128C1704.31 189.128 1706.61 186.821 1706.61 183.982C1706.61 181.143 1704.31 178.836 1701.47 178.836C1698.63 178.836 1696.32 181.143 1696.32 183.982C1696.32 186.821 1698.63 189.128 1701.47 189.128Z" fill="#EBF9FF"/>
<path d="M1800.08 249.017C1804.56 249.017 1808.16 245.379 1808.16 240.943C1808.16 236.462 1804.52 232.869 1800.08 232.869C1795.6 232.869 1792.01 236.507 1792.01 240.943C1791.97 245.423 1795.6 249.017 1800.08 249.017Z" fill="#EBF9FF"/>
<path d="M1800.08 364.003C1805.15 364.003 1809.27 359.892 1809.27 354.82C1809.27 349.748 1805.15 345.637 1800.08 345.637C1795.01 345.637 1790.9 349.748 1790.9 354.82C1790.9 359.892 1795.01 364.003 1800.08 364.003Z" fill="#EBF9FF"/>
<path d="M1898.7 191.701C1902.96 191.701 1906.42 188.241 1906.42 183.982C1906.42 179.723 1902.96 176.263 1898.7 176.263C1894.44 176.263 1890.98 179.723 1890.98 183.982C1890.98 188.241 1894.44 191.701 1898.7 191.701Z" fill="#EBF9FF"/>
<path d="M222.084 573.524C217.071 573.524 213.034 577.606 213.034 582.574C213.034 587.587 217.116 591.624 222.084 591.624C227.097 591.624 231.178 587.543 231.178 582.574C231.178 577.561 227.097 573.524 222.084 573.524Z" fill="#EBF9FF"/>
<path d="M123.468 531.381C126.628 531.381 129.19 528.818 129.19 525.658C129.19 522.497 126.628 519.935 123.468 519.935C120.307 519.935 117.745 522.497 117.745 525.658C117.745 528.818 120.307 531.381 123.468 531.381Z" fill="#EBF9FF"/>
<path d="M123.468 416.084C125.863 416.084 127.815 414.132 127.815 411.736C127.815 409.341 125.863 407.389 123.468 407.389C121.072 407.389 119.12 409.341 119.12 411.736C119.164 414.132 121.072 416.084 123.468 416.084Z" fill="#EBF9FF"/>
<path d="M1109.72 535.905C1115.4 535.905 1120.01 531.292 1120.01 525.613C1120.01 519.935 1115.4 515.321 1109.72 515.321C1104.04 515.321 1099.43 519.935 1099.43 525.613C1099.43 531.336 1104.04 535.905 1109.72 535.905Z" fill="#EBF9FF"/>
<path d="M1306.96 406.502C1304.07 406.502 1301.68 408.853 1301.68 411.781C1301.68 414.664 1304.03 417.06 1306.96 417.06C1309.88 417.06 1312.24 414.709 1312.24 411.781C1312.24 408.853 1309.84 406.502 1306.96 406.502Z" fill="#EBF9FF"/>
<path d="M1306.96 535.417C1312.32 535.417 1316.72 531.07 1316.72 525.658C1316.72 520.29 1312.37 515.898 1306.96 515.898C1301.59 515.898 1297.2 520.246 1297.2 525.658C1297.2 531.026 1301.59 535.417 1306.96 535.417Z" fill="#EBF9FF"/>
<path d="M1405.57 588.741C1408.98 588.741 1411.74 585.98 1411.74 582.574C1411.74 579.169 1408.98 576.408 1405.57 576.408C1402.17 576.408 1399.41 579.169 1399.41 582.574C1399.41 585.98 1402.17 588.741 1405.57 588.741Z" fill="#EBF9FF"/>
<path d="M1504.19 397.363C1496.25 397.363 1489.77 403.796 1489.77 411.781C1489.77 419.721 1496.2 426.198 1504.19 426.198C1512.13 426.198 1518.61 419.766 1518.61 411.781C1518.61 403.796 1512.17 397.363 1504.19 397.363Z" fill="#EBF9FF"/>
<path d="M1701.47 422.472C1707.37 422.472 1712.16 417.681 1712.16 411.781C1712.16 405.881 1707.37 401.089 1701.47 401.089C1695.57 401.089 1690.78 405.881 1690.78 411.781C1690.78 417.681 1695.52 422.472 1701.47 422.472Z" fill="#EBF9FF"/>
<path d="M1800.08 593.221C1805.98 593.221 1810.73 588.43 1810.73 582.574C1810.73 576.674 1805.94 571.927 1800.08 571.927C1794.18 571.927 1789.44 576.718 1789.44 582.574C1789.44 588.474 1794.18 593.221 1800.08 593.221Z" fill="#EBF9FF"/>
<path d="M1701.47 538.212C1708.39 538.212 1714.02 532.578 1714.02 525.658C1714.02 518.737 1708.39 513.103 1701.47 513.103C1694.55 513.103 1688.91 518.737 1688.91 525.658C1688.87 532.578 1694.5 538.212 1701.47 538.212Z" fill="#EBF9FF"/>
<path d="M1898.7 423.182C1905 423.182 1910.1 418.08 1910.1 411.736C1910.1 405.437 1905 400.291 1898.7 400.291C1892.4 400.291 1887.25 405.393 1887.25 411.736C1887.25 418.08 1892.4 423.182 1898.7 423.182Z" fill="#EBF9FF"/>
<path d="M1216.55 582.574C1216.55 578.049 1212.86 574.367 1208.34 574.367C1203.81 574.367 1200.13 578.049 1200.13 582.574C1200.13 587.099 1203.81 590.781 1208.34 590.781C1212.86 590.781 1216.55 587.099 1216.55 582.574Z" fill="#EBF9FF"/>
<path d="M1504.19 532.268C1507.84 532.268 1510.8 529.308 1510.8 525.658C1510.8 522.007 1507.84 519.048 1504.19 519.048C1500.54 519.048 1497.58 522.007 1497.58 525.658C1497.58 529.308 1500.54 532.268 1504.19 532.268Z" fill="#EBF9FF"/>
<path d="M1602.81 589.672C1606.71 589.672 1609.9 586.522 1609.9 582.574C1609.9 578.67 1606.75 575.476 1602.81 575.476C1598.9 575.476 1595.71 578.626 1595.71 582.574C1595.75 586.478 1598.9 589.672 1602.81 589.672Z" fill="#EBF9FF"/>
<path d="M1898.7 760.421C1902.57 760.421 1905.71 757.283 1905.71 753.412C1905.71 749.541 1902.57 746.403 1898.7 746.403C1894.83 746.403 1891.69 749.541 1891.69 753.412C1891.69 757.283 1894.83 760.421 1898.7 760.421Z" fill="#EBF9FF"/>
<path d="M1800.08 687.313C1795.03 687.313 1790.94 691.394 1790.94 696.451C1790.94 701.509 1795.03 705.59 1800.08 705.59C1805.14 705.59 1809.22 701.509 1809.22 696.451C1809.18 691.439 1805.1 687.313 1800.08 687.313Z" fill="#EBF9FF"/>
<path d="M1898.7 534.397C1903.53 534.397 1907.44 530.484 1907.44 525.658C1907.44 520.831 1903.53 516.918 1898.7 516.918C1893.87 516.918 1889.96 520.831 1889.96 525.658C1889.96 530.484 1893.87 534.397 1898.7 534.397Z" fill="#EBF9FF"/>
<path d="M222.084 913.825C216.362 913.825 211.704 918.483 211.704 924.206C211.704 929.928 216.362 934.587 222.084 934.587C227.807 934.587 232.465 929.928 232.465 924.206C232.509 918.483 227.851 913.825 222.084 913.825Z" fill="#EBF9FF"/>
<path d="M123.467 868.221C123.982 868.221 124.399 867.804 124.399 867.289C124.399 866.775 123.982 866.358 123.467 866.358C122.953 866.358 122.536 866.775 122.536 867.289C122.536 867.804 122.953 868.221 123.467 868.221Z" fill="#EBF9FF"/>
<path d="M123.468 761.708C128.049 761.708 131.763 757.994 131.763 753.412C131.763 748.83 128.049 745.116 123.468 745.116C118.886 745.116 115.172 748.83 115.172 753.412C115.172 757.994 118.886 761.708 123.468 761.708Z" fill="#EBF9FF"/>
<path d="M222.084 689.309C218.136 689.309 214.942 692.503 214.942 696.451C214.942 700.4 218.136 703.594 222.084 703.594C226.032 703.594 229.226 700.4 229.226 696.451C229.226 692.503 226.032 689.309 222.084 689.309Z" fill="#EBF9FF"/>
<path d="M412.885 924.206C412.885 927.755 415.768 930.683 419.362 930.683C422.911 930.683 425.839 927.799 425.839 924.206C425.839 920.657 422.955 917.729 419.362 917.729C415.768 917.773 412.885 920.657 412.885 924.206Z" fill="#EBF9FF"/>
<path d="M1405.57 685.938C1399.76 685.938 1395.01 690.64 1395.01 696.496C1395.01 702.307 1399.72 707.054 1405.57 707.054C1411.38 707.054 1416.13 702.352 1416.13 696.496C1416.13 690.64 1411.38 685.938 1405.57 685.938Z" fill="#EBF9FF"/>
<path d="M1493.28 753.412C1493.28 759.445 1498.16 764.37 1504.23 764.37C1510.27 764.37 1515.19 759.49 1515.19 753.412C1515.19 747.379 1510.31 742.455 1504.23 742.455C1498.16 742.455 1493.28 747.335 1493.28 753.412Z" fill="#EBF9FF"/>
<path d="M1602.81 930.816C1606.46 930.816 1609.42 927.856 1609.42 924.206C1609.42 920.555 1606.46 917.596 1602.81 917.596C1599.16 917.596 1596.2 920.555 1596.2 924.206C1596.2 927.856 1599.16 930.816 1602.81 930.816Z" fill="#EBF9FF"/>
<path d="M1504.19 875.896C1508.94 875.896 1512.8 872.042 1512.8 867.289C1512.8 862.536 1508.94 858.683 1504.19 858.683C1499.44 858.683 1495.58 862.536 1495.58 867.289C1495.58 872.042 1499.44 875.896 1504.19 875.896Z" fill="#EBF9FF"/>
<path d="M1602.81 705.634C1607.88 705.634 1611.99 701.523 1611.99 696.451C1611.99 691.38 1607.88 687.268 1602.81 687.268C1597.73 687.268 1593.62 691.38 1593.62 696.451C1593.62 701.523 1597.73 705.634 1602.81 705.634Z" fill="#EBF9FF"/>
<path d="M1701.47 880.332C1708.67 880.332 1714.51 874.493 1714.51 867.289C1714.51 860.086 1708.67 854.247 1701.47 854.247C1694.26 854.247 1688.42 860.086 1688.42 867.289C1688.42 874.493 1694.26 880.332 1701.47 880.332Z" fill="#EBF9FF"/>
<path d="M1800.08 931.614C1804.17 931.614 1807.45 928.332 1807.45 924.25C1807.45 920.169 1804.17 916.886 1800.08 916.886C1796 916.886 1792.72 920.169 1792.72 924.25C1792.68 928.287 1796 931.614 1800.08 931.614Z" fill="#EBF9FF"/>
<path d="M1701.47 766.321C1708.61 766.321 1714.38 760.554 1714.38 753.412C1714.38 746.27 1708.61 740.503 1701.47 740.503C1694.32 740.503 1688.56 746.27 1688.56 753.412C1688.51 760.554 1694.32 766.321 1701.47 766.321Z" fill="#EBF9FF"/>
<path d="M1898.7 873.145C1901.93 873.145 1904.56 870.523 1904.56 867.289C1904.56 864.055 1901.93 861.434 1898.7 861.434C1895.47 861.434 1892.84 864.055 1892.84 867.289C1892.84 870.523 1895.47 873.145 1898.7 873.145Z" fill="#EBF9FF"/>
<path d="M320.745 879.844C327.71 879.844 333.3 874.21 333.3 867.289C333.3 860.369 327.666 854.735 320.745 854.735C313.78 854.735 308.191 860.369 308.191 867.289C308.191 874.21 313.78 879.844 320.745 879.844Z" fill="#EBF9FF"/>
<path d="M419.362 1048.77C425.262 1048.77 430.053 1043.98 430.053 1038.08C430.053 1032.18 425.262 1027.39 419.362 1027.39C413.462 1027.39 408.671 1032.18 408.671 1038.08C408.671 1043.98 413.462 1048.77 419.362 1048.77Z" fill="#EBF9FF"/>
<path d="M621.652 1038.08C621.652 1035.29 619.39 1033.03 616.595 1033.03C613.8 1033.03 611.538 1035.29 611.538 1038.08C611.538 1040.88 613.8 1043.14 616.595 1043.14C619.39 1043.14 621.652 1040.92 621.652 1038.08Z" fill="#EBF9FF"/>
<path d="M715.212 1104.85C720.624 1104.85 725.016 1100.46 725.016 1095.04C725.016 1089.63 720.624 1085.24 715.212 1085.24C709.8 1085.24 705.408 1089.63 705.408 1095.04C705.408 1100.46 709.8 1104.85 715.212 1104.85Z" fill="#EBF9FF"/>
<path d="M823.322 1038.08C823.322 1032.85 819.063 1028.59 813.829 1028.59C808.594 1028.59 804.335 1032.85 804.335 1038.08C804.335 1043.32 808.594 1047.58 813.829 1047.58C819.063 1047.58 823.322 1043.32 823.322 1038.08Z" fill="#EBF9FF"/>
<path d="M912.445 1106.13C918.567 1106.13 923.536 1101.17 923.536 1095.04C923.536 1088.92 918.567 1083.95 912.445 1083.95C906.323 1083.95 901.355 1088.92 901.355 1095.04C901.355 1101.17 906.323 1106.13 912.445 1106.13Z" fill="#EBF9FF"/>
<path d="M222.084 1272.27C225.612 1272.27 228.472 1269.41 228.472 1265.88C228.472 1262.35 225.612 1259.49 222.084 1259.49C218.556 1259.49 215.696 1262.35 215.696 1265.88C215.696 1269.41 218.556 1272.27 222.084 1272.27Z" fill="#EBF9FF"/>
<path d="M123.467 1214.02C126.285 1214.02 128.569 1211.74 128.569 1208.92C128.569 1206.1 126.285 1203.82 123.467 1203.82C120.65 1203.82 118.366 1206.1 118.366 1208.92C118.366 1211.74 120.65 1214.02 123.467 1214.02Z" fill="#EBF9FF"/>
<path d="M121.072 1095.04C121.072 1096.37 122.137 1097.48 123.512 1097.48C124.843 1097.48 125.952 1096.42 125.952 1095.04C125.952 1093.71 124.887 1092.6 123.512 1092.6C122.137 1092.6 121.072 1093.71 121.072 1095.04Z" fill="#EBF9FF"/>
<path d="M222.084 1048.11C227.621 1048.11 232.11 1043.62 232.11 1038.08C232.11 1032.55 227.621 1028.06 222.084 1028.06C216.547 1028.06 212.059 1032.55 212.059 1038.08C212.059 1043.62 216.547 1048.11 222.084 1048.11Z" fill="#EBF9FF"/>
<path d="M312.449 1208.92C312.449 1213.49 316.131 1217.17 320.701 1217.17C325.27 1217.17 328.952 1213.49 328.952 1208.92C328.952 1204.35 325.27 1200.67 320.701 1200.67C316.176 1200.67 312.449 1204.35 312.449 1208.92Z" fill="#EBF9FF"/>
<path d="M326.379 1095.04C326.379 1091.89 323.85 1089.37 320.701 1089.37C317.551 1089.37 315.022 1091.89 315.022 1095.04C315.022 1098.19 317.551 1100.72 320.701 1100.72C323.85 1100.72 326.379 1098.19 326.379 1095.04Z" fill="#EBF9FF"/>
<path d="M517.978 1090.39C515.405 1090.39 513.32 1092.47 513.32 1095.04C513.32 1097.62 515.405 1099.7 517.978 1099.7C520.551 1099.7 522.636 1097.62 522.636 1095.04C522.592 1092.47 520.551 1090.39 517.978 1090.39Z" fill="#EBF9FF"/>
<path d="M608.787 1265.88C608.787 1270.18 612.292 1273.69 616.595 1273.69C620.898 1273.69 624.403 1270.18 624.403 1265.88C624.403 1261.58 620.898 1258.07 616.595 1258.07C612.292 1258.03 608.787 1261.53 608.787 1265.88Z" fill="#EBF9FF"/>
<path d="M517.978 1197.65C511.768 1197.65 506.71 1202.71 506.71 1208.92C506.71 1215.13 511.768 1220.19 517.978 1220.19C524.189 1220.19 529.246 1215.13 529.246 1208.92C529.246 1202.71 524.189 1197.65 517.978 1197.65Z" fill="#EBF9FF"/>
<path d="M912.445 1221.08C919.144 1221.08 924.6 1215.62 924.6 1208.92C924.6 1202.22 919.144 1196.77 912.445 1196.77C905.746 1196.77 900.29 1202.22 900.29 1208.92C900.334 1215.62 905.746 1221.08 912.445 1221.08Z" fill="#EBF9FF"/>
<path d="M1602.81 1259.76C1599.43 1259.76 1596.73 1262.47 1596.73 1265.84C1596.73 1269.21 1599.43 1271.91 1602.81 1271.91C1606.18 1271.91 1608.88 1269.21 1608.88 1265.84C1608.88 1262.47 1606.18 1259.76 1602.81 1259.76Z" fill="#EBF9FF"/>
<path d="M1602.81 1045.18C1606.71 1045.18 1609.9 1041.99 1609.9 1038.08C1609.9 1034.18 1606.71 1030.98 1602.81 1030.98C1598.9 1030.98 1595.71 1034.18 1595.71 1038.08C1595.71 1042.03 1598.9 1045.18 1602.81 1045.18Z" fill="#EBF9FF"/>
<path d="M1701.47 1081.16C1693.79 1081.16 1687.58 1087.37 1687.58 1095.04C1687.58 1102.72 1693.79 1108.93 1701.47 1108.93C1709.14 1108.93 1715.35 1102.72 1715.35 1095.04C1715.31 1087.37 1709.1 1081.16 1701.47 1081.16Z" fill="#EBF9FF"/>
<path d="M1800.08 1045.62C1804.25 1045.62 1807.63 1042.25 1807.63 1038.08C1807.63 1033.91 1804.25 1030.54 1800.08 1030.54C1795.91 1030.54 1792.54 1033.91 1792.54 1038.08C1792.54 1042.25 1795.91 1045.62 1800.08 1045.62Z" fill="#EBF9FF"/>
<path d="M1898.7 1106.36C1904.96 1106.36 1910.01 1101.3 1910.01 1095.04C1910.01 1088.79 1904.96 1083.73 1898.7 1083.73C1892.45 1083.73 1887.39 1088.79 1887.39 1095.04C1887.39 1101.3 1892.45 1106.36 1898.7 1106.36Z" fill="#EBF9FF"/>
<path d="M1898.7 1193.84C1890.36 1193.84 1883.62 1200.58 1883.62 1208.92C1883.62 1217.26 1890.36 1224 1898.7 1224C1907.04 1224 1913.78 1217.26 1913.78 1208.92C1913.78 1200.58 1907 1193.84 1898.7 1193.84Z" fill="#EBF9FF"/>
<path d="M411.865 1265.88C411.865 1270.01 415.192 1273.38 419.362 1273.38C423.488 1273.38 426.859 1270.05 426.859 1265.88C426.859 1261.76 423.532 1258.38 419.362 1258.38C415.236 1258.38 411.865 1261.71 411.865 1265.88Z" fill="#EBF9FF"/>
<path d="M419.362 1391.96C426.105 1391.96 431.606 1386.5 431.606 1379.71C431.606 1372.97 426.149 1367.47 419.362 1367.47C412.619 1367.47 407.118 1372.93 407.118 1379.71C407.118 1386.5 412.574 1391.96 419.362 1391.96Z" fill="#EBF9FF"/>
<path d="M715.212 1221.7C722.268 1221.7 727.988 1215.98 727.988 1208.92C727.988 1201.86 722.268 1196.14 715.212 1196.14C708.156 1196.14 702.436 1201.86 702.436 1208.92C702.436 1215.98 708.156 1221.7 715.212 1221.7Z" fill="#EBF9FF"/>
<path d="M813.828 1270.58C816.426 1270.58 818.531 1268.48 818.531 1265.88C818.531 1263.28 816.426 1261.18 813.828 1261.18C811.231 1261.18 809.126 1263.28 809.126 1265.88C809.126 1268.48 811.231 1270.58 813.828 1270.58Z" fill="#EBF9FF"/>
<path d="M912.445 1446.12C917.635 1446.12 921.85 1441.91 921.85 1436.72C921.85 1431.53 917.635 1427.31 912.445 1427.31C907.255 1427.31 903.04 1431.53 903.04 1436.72C903.04 1441.87 907.255 1446.12 912.445 1446.12Z" fill="#EBF9FF"/>
<path d="M813.828 1394.18C821.791 1394.18 828.246 1387.72 828.246 1379.76C828.246 1371.8 821.791 1365.34 813.828 1365.34C805.866 1365.34 799.411 1371.8 799.411 1379.76C799.411 1387.72 805.866 1394.18 813.828 1394.18Z" fill="#EBF9FF"/>
<path d="M1611.01 1379.76C1611.01 1375.23 1607.33 1371.55 1602.81 1371.55C1598.28 1371.55 1594.6 1375.23 1594.6 1379.76C1594.6 1384.28 1598.28 1387.97 1602.81 1387.97C1607.33 1387.92 1611.01 1384.24 1611.01 1379.76Z" fill="#EBF9FF"/>
<path d="M1800.08 1276.53C1805.98 1276.53 1810.73 1271.74 1810.73 1265.88C1810.73 1259.98 1805.94 1255.23 1800.08 1255.23C1794.18 1255.23 1789.44 1260.03 1789.44 1265.88C1789.39 1271.74 1794.18 1276.53 1800.08 1276.53Z" fill="#EBF9FF"/>
<path d="M1800.08 1369.11C1794.18 1369.11 1789.44 1373.86 1789.44 1379.76C1789.44 1385.66 1794.18 1390.41 1800.08 1390.41C1805.98 1390.41 1810.73 1385.66 1810.73 1379.76C1810.73 1373.86 1805.94 1369.11 1800.08 1369.11Z" fill="#EBF9FF"/>
<path d="M125.375 1436.68C125.375 1435.65 124.532 1434.77 123.468 1434.77C122.403 1434.77 121.56 1435.61 121.56 1436.68C121.56 1437.74 122.403 1438.58 123.468 1438.58C124.532 1438.58 125.375 1437.74 125.375 1436.68Z" fill="#EBF9FF"/>
<path d="M222.084 1373.59C218.668 1373.59 215.918 1376.34 215.918 1379.76C215.918 1383.17 218.668 1385.93 222.084 1385.93C225.5 1385.93 228.251 1383.17 228.251 1379.76C228.251 1376.34 225.5 1373.59 222.084 1373.59Z" fill="#EBF9FF"/>
<path d="M320.745 1420.97C312.095 1420.97 305.041 1427.98 305.041 1436.68C305.041 1445.33 312.05 1452.38 320.745 1452.38C329.396 1452.38 336.449 1445.37 336.449 1436.68C336.405 1428.02 329.396 1420.97 320.745 1420.97Z" fill="#EBF9FF"/>
<path d="M517.978 1427.18C512.744 1427.18 508.485 1431.44 508.485 1436.68C508.485 1441.91 512.744 1446.17 517.978 1446.17C523.213 1446.17 527.472 1441.91 527.472 1436.68C527.427 1431.44 523.213 1427.18 517.978 1427.18Z" fill="#EBF9FF"/>
<path d="M616.595 1390.54C622.54 1390.54 627.375 1385.7 627.375 1379.76C627.375 1373.81 622.54 1368.98 616.595 1368.98C610.651 1368.98 605.815 1373.81 605.815 1379.76C605.815 1385.7 610.651 1390.54 616.595 1390.54Z" fill="#EBF9FF"/>
<path d="M727.544 1436.68C727.544 1429.84 721.999 1424.34 715.212 1424.34C708.424 1424.34 702.879 1429.89 702.879 1436.68C702.879 1443.51 708.424 1449.01 715.212 1449.01C721.999 1449.01 727.544 1443.51 727.544 1436.68Z" fill="#EBF9FF"/>
<path d="M1504.19 1445.15C1508.85 1445.15 1512.66 1441.33 1512.66 1436.67C1512.66 1432.02 1508.85 1428.2 1504.19 1428.2C1499.53 1428.2 1495.72 1432.02 1495.72 1436.67C1495.72 1441.38 1499.53 1445.15 1504.19 1445.15Z" fill="#EBF9FF"/>
<path d="M1701.47 1446.04C1706.66 1446.04 1710.83 1441.82 1710.83 1436.68C1710.83 1431.48 1706.61 1427.31 1701.47 1427.31C1696.28 1427.31 1692.11 1431.53 1692.11 1436.68C1692.06 1441.87 1696.28 1446.04 1701.47 1446.04Z" fill="#EBF9FF"/>
<defs>
<linearGradient id="paint0_linear" x1="2037.12" y1="1729.8" x2="1029.9" y2="174.658" gradientUnits="userSpaceOnUse">
<stop stop-color="#52BBE8"/>
<stop offset="0.196" stop-color="#69C3EB"/>
<stop offset="0.6037" stop-color="#A3D8F1"/>
<stop offset="1" stop-color="#E1EFF8"/>
</linearGradient>
<linearGradient id="paint1_linear" x1="2176.08" y1="1639.8" x2="1168.86" y2="84.6605" gradientUnits="userSpaceOnUse">
<stop stop-color="#52BBE8"/>
<stop offset="0.196" stop-color="#69C3EB"/>
<stop offset="0.6037" stop-color="#A3D8F1"/>
<stop offset="1" stop-color="#E1EFF8"/>
</linearGradient>
<linearGradient id="paint2_linear" x1="2315.03" y1="1549.8" x2="1307.82" y2="-5.33886" gradientUnits="userSpaceOnUse">
<stop stop-color="#52BBE8"/>
<stop offset="0.196" stop-color="#69C3EB"/>
<stop offset="0.6037" stop-color="#A3D8F1"/>
<stop offset="1" stop-color="#E1EFF8"/>
</linearGradient>
<linearGradient id="paint3_linear" x1="2453.99" y1="1459.8" x2="1446.77" y2="-95.334" gradientUnits="userSpaceOnUse">
<stop stop-color="#52BBE8"/>
<stop offset="0.196" stop-color="#69C3EB"/>
<stop offset="0.6037" stop-color="#A3D8F1"/>
<stop offset="1" stop-color="#E1EFF8"/>
</linearGradient>
<linearGradient id="paint4_linear" x1="2576.44" y1="1380.5" x2="1569.22" y2="-174.645" gradientUnits="userSpaceOnUse">
<stop stop-color="#52BBE8"/>
<stop offset="0.196" stop-color="#69C3EB"/>
<stop offset="0.6037" stop-color="#A3D8F1"/>
<stop offset="1" stop-color="#E1EFF8"/>
</linearGradient>
<linearGradient id="paint5_linear" x1="2028.66" y1="1735.28" x2="1021.44" y2="180.139" gradientUnits="userSpaceOnUse">
<stop stop-color="#52BBE8"/>
<stop offset="0.196" stop-color="#69C3EB"/>
<stop offset="0.6037" stop-color="#A3D8F1"/>
<stop offset="1" stop-color="#E1EFF8"/>
</linearGradient>
<linearGradient id="paint6_linear" x1="2167.61" y1="1645.28" x2="1160.4" y2="90.1405" gradientUnits="userSpaceOnUse">
<stop stop-color="#52BBE8"/>
<stop offset="0.196" stop-color="#69C3EB"/>
<stop offset="0.6037" stop-color="#A3D8F1"/>
<stop offset="1" stop-color="#E1EFF8"/>
</linearGradient>
<linearGradient id="paint7_linear" x1="2306.57" y1="1555.28" x2="1299.35" y2="0.142866" gradientUnits="userSpaceOnUse">
<stop stop-color="#52BBE8"/>
<stop offset="0.196" stop-color="#69C3EB"/>
<stop offset="0.6037" stop-color="#A3D8F1"/>
<stop offset="1" stop-color="#E1EFF8"/>
</linearGradient>
<linearGradient id="paint8_linear" x1="2445.52" y1="1465.28" x2="1438.31" y2="-89.8542" gradientUnits="userSpaceOnUse">
<stop stop-color="#52BBE8"/>
<stop offset="0.196" stop-color="#69C3EB"/>
<stop offset="0.6037" stop-color="#A3D8F1"/>
<stop offset="1" stop-color="#E1EFF8"/>
</linearGradient>
<linearGradient id="paint9_linear" x1="2526.63" y1="1412.76" x2="1519.41" y2="-142.378" gradientUnits="userSpaceOnUse">
<stop stop-color="#52BBE8"/>
<stop offset="0.196" stop-color="#69C3EB"/>
<stop offset="0.6037" stop-color="#A3D8F1"/>
<stop offset="1" stop-color="#E1EFF8"/>
</linearGradient>
<linearGradient id="paint10_linear" x1="2159.15" y1="1650.76" x2="1151.94" y2="95.6218" gradientUnits="userSpaceOnUse">
<stop stop-color="#52BBE8"/>
<stop offset="0.196" stop-color="#69C3EB"/>
<stop offset="0.6037" stop-color="#A3D8F1"/>
<stop offset="1" stop-color="#E1EFF8"/>
</linearGradient>
<linearGradient id="paint11_linear" x1="2298.11" y1="1560.76" x2="1290.89" y2="5.62492" gradientUnits="userSpaceOnUse">
<stop stop-color="#52BBE8"/>
<stop offset="0.196" stop-color="#69C3EB"/>
<stop offset="0.6037" stop-color="#A3D8F1"/>
<stop offset="1" stop-color="#E1EFF8"/>
</linearGradient>
<linearGradient id="paint12_linear" x1="2420.56" y1="1481.46" x2="1413.34" y2="-73.6858" gradientUnits="userSpaceOnUse">
<stop stop-color="#52BBE8"/>
<stop offset="0.196" stop-color="#69C3EB"/>
<stop offset="0.6037" stop-color="#A3D8F1"/>
<stop offset="1" stop-color="#E1EFF8"/>
</linearGradient>
<linearGradient id="paint13_linear" x1="2150.69" y1="1656.24" x2="1143.47" y2="101.102" gradientUnits="userSpaceOnUse">
<stop stop-color="#52BBE8"/>
<stop offset="0.196" stop-color="#69C3EB"/>
<stop offset="0.6037" stop-color="#A3D8F1"/>
<stop offset="1" stop-color="#E1EFF8"/>
</linearGradient>
<linearGradient id="paint14_linear" x1="2289.64" y1="1566.24" x2="1282.43" y2="11.1052" gradientUnits="userSpaceOnUse">
<stop stop-color="#52BBE8"/>
<stop offset="0.196" stop-color="#69C3EB"/>
<stop offset="0.6037" stop-color="#A3D8F1"/>
<stop offset="1" stop-color="#E1EFF8"/>
</linearGradient>
<linearGradient id="paint15_linear" x1="2370.75" y1="1513.72" x2="1363.53" y2="-41.4216" gradientUnits="userSpaceOnUse">
<stop stop-color="#52BBE8"/>
<stop offset="0.196" stop-color="#69C3EB"/>
<stop offset="0.6037" stop-color="#A3D8F1"/>
<stop offset="1" stop-color="#E1EFF8"/>
</linearGradient>
<linearGradient id="paint16_linear" x1="1169.53" y1="2291.71" x2="162.31" y2="736.569" gradientUnits="userSpaceOnUse">
<stop stop-color="#52BBE8"/>
<stop offset="0.196" stop-color="#69C3EB"/>
<stop offset="0.6037" stop-color="#A3D8F1"/>
<stop offset="1" stop-color="#E1EFF8"/>
</linearGradient>
<linearGradient id="paint17_linear" x1="2142.22" y1="1661.72" x2="1135.01" y2="106.584" gradientUnits="userSpaceOnUse">
<stop stop-color="#52BBE8"/>
<stop offset="0.196" stop-color="#69C3EB"/>
<stop offset="0.6037" stop-color="#A3D8F1"/>
<stop offset="1" stop-color="#E1EFF8"/>
</linearGradient>
<linearGradient id="paint18_linear" x1="2264.68" y1="1582.42" x2="1257.46" y2="27.2731" gradientUnits="userSpaceOnUse">
<stop stop-color="#52BBE8"/>
<stop offset="0.196" stop-color="#69C3EB"/>
<stop offset="0.6037" stop-color="#A3D8F1"/>
<stop offset="1" stop-color="#E1EFF8"/>
</linearGradient>
<linearGradient id="paint19_linear" x1="1022.11" y1="2387.19" x2="14.8927" y2="832.047" gradientUnits="userSpaceOnUse">
<stop stop-color="#52BBE8"/>
<stop offset="0.196" stop-color="#69C3EB"/>
<stop offset="0.6037" stop-color="#A3D8F1"/>
<stop offset="1" stop-color="#E1EFF8"/>
</linearGradient>
<linearGradient id="paint20_linear" x1="1161.06" y1="2297.19" x2="153.849" y2="742.05" gradientUnits="userSpaceOnUse">
<stop stop-color="#52BBE8"/>
<stop offset="0.196" stop-color="#69C3EB"/>
<stop offset="0.6037" stop-color="#A3D8F1"/>
<stop offset="1" stop-color="#E1EFF8"/>
</linearGradient>
<linearGradient id="paint21_linear" x1="1300.02" y1="2207.19" x2="292.804" y2="652.051" gradientUnits="userSpaceOnUse">
<stop stop-color="#52BBE8"/>
<stop offset="0.196" stop-color="#69C3EB"/>
<stop offset="0.6037" stop-color="#A3D8F1"/>
<stop offset="1" stop-color="#E1EFF8"/>
</linearGradient>
<linearGradient id="paint22_linear" x1="1438.98" y1="2117.19" x2="431.762" y2="562.054" gradientUnits="userSpaceOnUse">
<stop stop-color="#52BBE8"/>
<stop offset="0.196" stop-color="#69C3EB"/>
<stop offset="0.6037" stop-color="#A3D8F1"/>
<stop offset="1" stop-color="#E1EFF8"/>
</linearGradient>
<linearGradient id="paint23_linear" x1="2214.86" y1="1614.68" x2="1207.65" y2="59.542" gradientUnits="userSpaceOnUse">
<stop stop-color="#52BBE8"/>
<stop offset="0.196" stop-color="#69C3EB"/>
<stop offset="0.6037" stop-color="#A3D8F1"/>
<stop offset="1" stop-color="#E1EFF8"/>
</linearGradient>
<linearGradient id="paint24_linear" x1="1013.64" y1="2392.67" x2="6.43086" y2="837.53" gradientUnits="userSpaceOnUse">
<stop stop-color="#52BBE8"/>
<stop offset="0.196" stop-color="#69C3EB"/>
<stop offset="0.6037" stop-color="#A3D8F1"/>
<stop offset="1" stop-color="#E1EFF8"/>
</linearGradient>
<linearGradient id="paint25_linear" x1="1152.6" y1="2302.67" x2="145.386" y2="747.531" gradientUnits="userSpaceOnUse">
<stop stop-color="#52BBE8"/>
<stop offset="0.196" stop-color="#69C3EB"/>
<stop offset="0.6037" stop-color="#A3D8F1"/>
<stop offset="1" stop-color="#E1EFF8"/>
</linearGradient>
<linearGradient id="paint26_linear" x1="1291.56" y1="2212.67" x2="284.343" y2="657.534" gradientUnits="userSpaceOnUse">
<stop stop-color="#52BBE8"/>
<stop offset="0.196" stop-color="#69C3EB"/>
<stop offset="0.6037" stop-color="#A3D8F1"/>
<stop offset="1" stop-color="#E1EFF8"/>
</linearGradient>
<linearGradient id="paint27_linear" x1="877.591" y1="2480.79" x2="-129.626" y2="925.647" gradientUnits="userSpaceOnUse">
<stop stop-color="#52BBE8"/>
<stop offset="0.196" stop-color="#69C3EB"/>
<stop offset="0.6037" stop-color="#A3D8F1"/>
<stop offset="1" stop-color="#E1EFF8"/>
</linearGradient>
<linearGradient id="paint28_linear" x1="1016.55" y1="2390.79" x2="9.32663" y2="835.645" gradientUnits="userSpaceOnUse">
<stop stop-color="#52BBE8"/>
<stop offset="0.196" stop-color="#69C3EB"/>
<stop offset="0.6037" stop-color="#A3D8F1"/>
<stop offset="1" stop-color="#E1EFF8"/>
</linearGradient>
<linearGradient id="paint29_linear" x1="1155.5" y1="2300.79" x2="148.289" y2="745.658" gradientUnits="userSpaceOnUse">
<stop stop-color="#52BBE8"/>
<stop offset="0.196" stop-color="#69C3EB"/>
<stop offset="0.6037" stop-color="#A3D8F1"/>
<stop offset="1" stop-color="#E1EFF8"/>
</linearGradient>
<linearGradient id="paint30_linear" x1="1294.46" y1="2210.79" x2="287.247" y2="655.659" gradientUnits="userSpaceOnUse">
<stop stop-color="#52BBE8"/>
<stop offset="0.196" stop-color="#69C3EB"/>
<stop offset="0.6037" stop-color="#A3D8F1"/>
<stop offset="1" stop-color="#E1EFF8"/>
</linearGradient>
<linearGradient id="paint31_linear" x1="1850.29" y1="1850.8" x2="843.072" y2="295.661" gradientUnits="userSpaceOnUse">
<stop stop-color="#52BBE8"/>
<stop offset="0.196" stop-color="#69C3EB"/>
<stop offset="0.6037" stop-color="#A3D8F1"/>
<stop offset="1" stop-color="#E1EFF8"/>
</linearGradient>
<linearGradient id="paint32_linear" x1="1989.24" y1="1760.8" x2="982.03" y2="205.667" gradientUnits="userSpaceOnUse">
<stop stop-color="#52BBE8"/>
<stop offset="0.196" stop-color="#69C3EB"/>
<stop offset="0.6037" stop-color="#A3D8F1"/>
<stop offset="1" stop-color="#E1EFF8"/>
</linearGradient>
</defs>
</svg>
